<svg version="1.1" xmlns="http://www.w3.org/2000/svg" xmlns:xlink="http://www.w3.org/1999/xlink" x="0px" y="0px"
	 viewBox="0 0 1280 1024" xml:space="preserve">

		<path style="fill:#f4f1f8;" d="M914.507,334.529c-0.382,64.505-19.336,112.885-57.102,153.987
			c-32.005,34.832-61.327,71.479-78.611,116.348c-6.735,17.486-10.31,32.214,6.625,48.121c13.934,13.089,13.476,33.073,5.33,50.505
			c-4.259,9.114-5.05,15.715-0.5,25.386c9.42,20.025,6.667,39.33-8.183,57.087c-4.104,4.907-6.113,13.909-5.066,20.383
			c5.115,31.625-9.218,54.052-40.183,63.648c-9.143,2.833-18.845,8.724-24.849,16.039c-40.435,49.264-103.556,49.317-143.914-0.012
			c-5.684-6.948-14.505-13.099-23.053-15.622c-33.369-9.849-47.619-31.899-41.659-65.834c0.961-5.475-0.591-13.373-4.135-17.318
			c-16.553-18.426-17.862-38.102-9.469-60.433c2.363-6.287,1.94-14.995-0.406-21.425c-7.647-20.961-7.866-40.996,8.745-56.895
			c11.169-10.691,10.592-21.034,6.508-33.473c-15.854-48.287-46.146-87.323-79.809-124.081
			c-58.546-63.928-73.697-137.903-47.131-219.143c22.335-68.299,71.811-113.581,136.541-141.558
			c117.654-50.851,227.282-33.361,325.067,47.304C889.865,219.293,913.491,277.066,914.507,334.529z M640,628.435
			c0.001,0.236,0.001,0.471,0.002,0.707c10.538,0,21.203-1.041,31.587,0.226c19.027,2.321,30.419-2.517,30.997-24.236
			c0.239-8.991,4.263-18.017,7.295-26.776c18.9-54.595,55.067-97.521,93.096-139.565c61.068-67.519,46.374-172.429-30.382-221.334
			c-86.117-54.87-173.127-56.453-260.536-2.91c-82.162,50.328-97.578,155.912-32.596,227.016
			c37.865,41.433,72.82,84.521,91.306,138.55c5.47,15.988,5.645,39.497,16.572,46.421C600.152,634.653,622.046,628.435,640,628.435z
			"/>
		<path style="fill:#f4f1f8;" d="M647.626,255.951c40.117,2.822,72.354,12.267,94.426,40.234
			c9.746,12.348,15.189,29.347,18.216,45.075c1.083,5.626-9.566,16.648-17.059,19.568c-4.255,1.659-17.98-7.3-18.856-12.835
			c-6.458-40.818-38.188-46.071-69.643-52.355c-4.236-0.846-8.641-0.802-12.94-1.38c-12.631-1.699-21.599-7.816-20.191-21.657
			c1.417-13.925,11.461-17.948,24.201-16.876C648.247,255.932,650.697,256.357,647.626,255.951z"/>

</svg>
