<?xml version="1.0" standalone="no"?>
<!DOCTYPE svg PUBLIC "-//W3C//DTD SVG 20010904//EN"
 "http://www.w3.org/TR/2001/REC-SVG-20010904/DTD/svg10.dtd">
<svg version="1.0" xmlns="http://www.w3.org/2000/svg"
 width="16.000000pt" height="16.000000pt" viewBox="0 0 16.000000 16.000000"
 preserveAspectRatio="xMidYMid meet">
<metadata>
Created by potrace 1.11, written by Peter Selinger 2001-2013
</metadata>
<g transform="translate(0.000000,16.000000) scale(0.005161,-0.005161)"
fill="#000000" stroke="none">
<path d="M1518 2625 c-2 -2 -30 -5 -63 -9 -33 -3 -84 -13 -114 -21 -55 -14
-178 -63 -196 -78 -5 -4 -32 -22 -60 -40 -48 -30 -165 -143 -165 -159 0 -4
-13 -26 -29 -50 -102 -154 -100 -421 4 -583 18 -27 60 -81 94 -120 79 -89 130
-163 169 -245 45 -96 47 -125 11 -160 -17 -16 -30 -31 -29 -34 1 -4 -1 -22 -4
-41 -5 -24 -1 -46 12 -73 18 -37 18 -41 2 -62 -11 -15 -16 -37 -15 -64 4 -55
2 -49 28 -82 18 -23 22 -41 22 -95 0 -53 4 -72 20 -89 25 -28 67 -50 101 -52
16 -2 33 -13 43 -28 58 -91 158 -127 272 -98 35 9 90 53 122 98 9 13 29 26 43
28 43 5 83 31 104 65 21 34 27 111 10 122 -6 4 2 21 20 41 34 39 32 34 34 92
1 23 -1 42 -6 42 -4 0 -7 3 -6 7 0 5 -2 16 -7 26 -4 11 -2 28 5 43 13 23 16
62 9 113 -2 13 -16 33 -31 44 -24 17 -27 25 -22 56 14 86 119 258 233 381 60
64 108 154 129 243 24 103 19 256 -9 310 -5 9 -7 17 -3 17 3 0 -1 11 -10 25
-9 13 -16 29 -16 34 0 18 -65 114 -106 157 -118 123 -307 213 -484 230 -30 3
-67 7 -82 8 -15 2 -29 2 -30 1z m227 -226 c49 -17 92 -33 95 -37 3 -4 21 -16
41 -27 128 -71 207 -204 207 -349 0 -110 -42 -211 -119 -286 -120 -119 -226
-298 -251 -427 -6 -32 -15 -60 -19 -63 -5 -4 -264 -4 -311 -1 -5 1 -8 9 -8 19
0 60 -81 263 -120 302 -3 3 -24 30 -47 60 -22 30 -58 73 -79 95 -78 81 -114
150 -130 248 -9 53 -2 133 14 163 5 10 11 24 12 29 14 63 91 158 165 202 185
112 360 135 550 72z"/>
<path d="M1513 2199 c-17 -17 -17 -54 0 -67 7 -6 31 -13 54 -15 107 -13 203
-70 203 -121 0 -51 51 -79 82 -44 18 22 17 56 -3 103 -15 36 -98 117 -110 109
-5 -3 -9 0 -9 7 0 7 -3 9 -7 6 -3 -4 -12 -2 -19 3 -28 24 -173 38 -191 19z"/>
</g>
</svg>
